# xmcd CD database file
#
# Track frame offsets:
#	150
#	10658
#	22539
#	30289
#	44344
#	63477
#	68476
#	72808
#	84632
#	90572
#	97482
#	103162
#	111321
#	140504
#	144780
#	151463
#	162252
#
# Disc length: 2584 seconds
#
# Revision: 1
# Processed by: cddbd v1.5.2PL0 Copyright (c) Steve Scherf et al.
# Submitted via: CDex 1.70beta2
#
DISCID=d50a1611
DTITLE=Various Artist - The Tank
DYEAR=2004
DGENRE=Country
TTITLE0=WEDDING CAKE FROST (Harry)
TTITLE1=ROYAL AGRICULTURAL SHOW (Dora)
TTITLE2=The Art of Wood-cutting (Roy)
TTITLE3=WEDDING CAKE FROST (Dora)
TTITLE4=LABOUR OF LOVE (Dora)
TTITLE5=Kangaroo Meatloaf (Dora)
TTITLE6=Thirty Years of Bad Road (Harry)
TTITLE7=BRAND NEW AUTOMOBILE (Harry)
TTITLE8=Tidy Town (John Bloody Deere)
TTITLE9=CRAYFISH YOU WISH (All)
TTITLE10=In Praise of The Carburetor (Harry)
TTITLE11=A Thing or Two About Chainsaws (Roy)
TTITLE12=AS FAR AS THE EYE CAN SEE (Harry)
TTITLE13=Lemon Blossom And Pussy Willow (Dora)
TTITLE14=My Willows Are Back Now (Dora)
TTITLE15=WEDDING CAKE FROST REPRISE (Harry and Dora)
TTITLE16=A LONG TIME AGO IN THE LAND OF CHANG (Dora)
EXTD=YEAR: 2004
EXTT0=
EXTT1=
EXTT2=
EXTT3=
EXTT4=
EXTT5=
EXTT6=
EXTT7=
EXTT8=
EXTT9=
EXTT10=
EXTT11=
EXTT12=
EXTT13=
EXTT14=
EXTT15=
EXTT16=
PLAYORDER=
